<svg version="1.1" id="Layer_1" xmlns="http://www.w3.org/2000/svg" xmlns:xlink="http://www.w3.org/1999/xlink" x="0px" y="0px"
	 width="100%" viewBox="0 0 1024 1024" enable-background="new 0 0 1024 1024" xml:space="preserve">
<path fill="#000000" opacity="1.000000" stroke="none" 
	d="
M592.281982,533.008484 
	C571.170227,531.581299 550.502930,532.377136 529.848328,532.214966 
	C499.352112,531.975586 468.950775,534.575012 438.488861,535.406067 
	C430.625244,535.620544 423.158569,538.325623 415.438782,539.523926 
	C405.177795,541.116638 394.879364,539.226013 384.619080,540.121338 
	C382.473206,540.308533 380.845520,539.086792 379.472900,537.495850 
	C376.744385,534.333374 374.194946,531.057739 372.308502,527.299927 
	C368.447083,519.608032 370.036469,514.639221 377.778870,511.042084 
	C390.694580,505.041412 404.296082,501.199280 418.282196,498.728668 
	C426.503693,497.276398 426.275208,497.403809 426.693024,489.020020 
	C428.027679,462.238037 429.506592,435.462555 431.109070,408.695312 
	C431.299713,405.511017 430.333954,403.287262 428.242249,401.147583 
	C421.994995,394.757172 414.226440,390.448730 406.950195,385.474091 
	C401.026093,381.423889 395.120331,377.376160 390.329987,371.947937 
	C385.900757,366.928925 383.840393,361.497467 387.413788,355.079071 
	C391.070557,348.510864 397.338165,346.588776 404.149475,345.777313 
	C406.042450,345.551788 407.559235,346.984039 409.160309,347.837494 
	C432.634979,360.350433 456.968414,370.596527 483.170380,375.912689 
	C484.795319,376.242371 486.452393,376.587128 488.098816,376.609406 
	C499.762817,376.767365 511.430511,376.722534 523.092102,376.971863 
	C542.164612,377.379639 559.966675,372.818542 576.998779,364.342529 
	C591.771851,356.990784 606.569031,349.697113 620.646484,341.081696 
	C624.549133,338.693268 627.559509,338.814423 631.012451,341.565125 
	C633.628174,343.648895 636.276794,345.636108 638.313843,348.328949 
	C644.224609,356.142670 644.074158,358.982697 637.706055,366.323914 
	C629.171509,376.162689 619.832947,385.193207 610.128540,393.844727 
	C607.421204,396.258362 606.290283,398.847778 606.303955,402.516998 
	C606.407532,430.347748 606.409607,458.179840 606.195679,486.009674 
	C606.164062,490.132050 607.534546,491.873077 611.414185,492.917664 
	C623.944031,496.291412 636.691650,498.839874 649.012512,503.024963 
	C655.347778,505.176849 660.868530,507.833923 661.283875,515.566650 
	C661.703674,523.382812 657.437744,528.342346 651.025513,531.892029 
	C646.240051,534.541077 641.158142,535.679016 635.649353,535.156250 
	C621.385681,533.802795 607.075562,533.282288 592.281982,533.008484 
M465.965424,456.641266 
	C466.734589,466.147064 465.857849,475.574371 464.735046,485.003967 
	C463.878418,492.198303 467.076416,495.361053 474.265625,494.548004 
	C479.218201,493.987915 484.152863,493.265625 489.091125,492.583679 
	C495.281586,491.728821 499.371460,488.291138 501.576019,482.468109 
	C503.543701,477.270752 504.398376,471.844391 504.562195,466.360596 
	C504.995544,451.853180 502.731506,437.521515 501.425446,423.128357 
	C501.130188,419.874542 499.885620,418.001495 496.081116,418.241058 
	C491.905029,418.504028 487.768768,417.470093 483.899323,415.953674 
	C479.748871,414.327179 475.490601,414.146576 471.162231,413.944855 
	C467.664032,413.781830 465.979797,415.005615 465.971375,418.776978 
	C465.943878,431.082245 464.513184,443.384583 465.965424,456.641266 
M543.745422,489.441864 
	C544.752686,490.028717 545.738892,490.655945 546.770447,491.196350 
	C560.215820,498.239716 566.573242,495.296783 570.060913,480.389893 
	C571.548523,474.031555 571.777161,467.555145 571.857910,461.053986 
	C572.046448,445.881897 571.435547,430.781586 568.685852,415.809509 
	C567.997925,412.063568 566.655029,410.602417 562.639771,411.958801 
	C556.651062,413.981812 550.511963,415.566589 544.414978,417.258881 
	C541.824402,417.977905 540.465759,419.384766 540.541199,422.228241 
	C541.093750,443.040710 541.581970,463.854889 542.099670,484.668304 
	C542.136597,486.154144 542.005554,487.698914 543.745422,489.441864 
z"/>
<path fill="#000000" opacity="1.000000" stroke="none" 
	d="
M495.831482,262.885529 
	C443.643677,288.610413 392.588226,315.703094 341.493958,342.718750 
	C337.031952,345.078033 332.217316,347.174652 327.771484,344.596130 
	C321.168976,340.766815 314.921722,336.066376 312.402344,328.190582 
	C311.660065,325.870178 313.649872,324.943787 314.992584,323.832703 
	C337.222290,305.437469 360.531616,288.506439 384.667450,272.711517 
	C423.784424,247.112717 464.949249,225.265579 507.369629,205.700882 
	C512.013428,203.559097 515.934326,203.541107 520.566895,205.911362 
	C587.189636,239.998734 650.774475,278.836731 709.095947,325.946075 
	C719.591553,334.423950 716.620422,334.863922 710.911377,342.055756 
	C704.924194,349.597961 698.804016,351.370422 689.950500,347.752197 
	C675.130676,341.695587 661.224670,333.736023 646.978210,326.500275 
	C618.315796,311.942688 589.784729,297.125641 561.245789,282.326263 
	C552.210083,277.640656 543.635986,272.103546 535.489136,266.058350 
	C522.906677,256.721832 510.118103,253.975891 495.831482,262.885529 
z"/>
<path fill="#000000" opacity="1.000000" stroke="none" 
	d="
M458.894806,649.982422 
	C458.894806,633.996582 458.862427,618.507385 458.923370,603.018555 
	C458.935699,599.882324 458.835632,597.246826 455.215729,595.762512 
	C452.137482,594.500183 451.840363,591.317139 452.444580,588.437805 
	C453.063660,585.487854 455.802826,586.188416 457.822510,586.157471 
	C465.149078,586.044861 472.478455,586.054199 479.806091,586.109863 
	C481.898010,586.125732 484.481995,585.743103 485.034180,588.680603 
	C485.552155,591.436157 485.183197,594.495972 482.389893,595.616882 
	C478.428101,597.206604 478.051086,599.991760 478.185699,603.549011 
	C478.361908,608.205688 478.304138,612.875671 478.202972,617.536804 
	C478.141357,620.376160 479.051117,621.889893 482.180389,621.846924 
	C490.506439,621.732544 498.834930,621.737488 507.161957,621.784546 
	C509.971436,621.800415 511.032440,620.431396 511.013214,617.800415 
	C510.971802,612.138428 510.933960,606.475708 510.986053,600.814148 
	C511.007538,598.478760 509.842773,597.202698 507.858765,596.224182 
	C504.601532,594.617737 504.144653,591.580322 504.786774,588.512085 
	C505.467010,585.261780 508.455994,586.223938 510.583801,586.178528 
	C517.409302,586.032532 524.240540,586.052612 531.067688,586.145447 
	C533.266174,586.175415 536.120117,585.443726 536.920715,588.550110 
	C537.639465,591.338989 536.908142,594.266785 534.247803,595.482239 
	C530.418640,597.231812 530.197388,600.094360 530.217468,603.610168 
	C530.319458,621.430359 530.303101,639.251526 530.252197,657.072144 
	C530.243713,660.034424 530.280090,662.504150 533.780823,663.847107 
	C536.816895,665.011719 537.516418,668.060486 536.900024,671.024841 
	C536.210876,674.338806 533.260437,673.305115 531.121155,673.338501 
	C523.961304,673.450317 516.797974,673.429749 509.637360,673.345276 
	C507.619690,673.321472 504.958130,674.078430 504.419281,670.945679 
	C503.949799,668.216248 504.040283,665.104858 506.945404,664.017456 
	C510.820343,662.566895 511.118225,659.879395 511.047607,656.513306 
	C510.925354,650.686523 510.912201,644.854004 511.025879,639.027222 
	C511.090485,635.715759 509.972382,634.188721 506.400665,634.270081 
	C498.410492,634.452026 490.412323,634.394592 482.419403,634.287170 
	C479.479950,634.247681 478.160767,635.293762 478.210815,638.342590 
	C478.322906,645.169250 478.295227,651.999329 478.231171,658.827087 
	C478.209625,661.123901 479.090332,662.591614 481.244110,663.433044 
	C483.847260,664.450073 485.054413,666.468750 485.170807,669.249207 
	C485.279236,671.840698 484.439362,673.395081 481.539917,673.374695 
	C472.880005,673.313660 464.219513,673.322327 455.559265,673.309692 
	C453.662628,673.306946 452.162079,672.669861 452.204712,670.533569 
	C452.239899,668.768433 452.187653,666.005127 454.361298,666.113464 
	C459.033386,666.346436 458.402527,662.862610 458.731232,660.457275 
	C459.178406,657.184937 458.876190,653.810120 458.894806,649.982422 
z"/>
<path fill="#000000" opacity="1.000000" stroke="none" 
	d="
M582.623169,750.685913 
	C579.507568,753.264221 576.035461,754.513855 572.984619,756.014587 
	C572.443359,758.097900 573.669678,759.187683 574.463257,760.381836 
	C579.069092,767.312439 583.737671,774.201294 588.355774,781.123718 
	C589.883484,783.413818 591.776245,785.091370 594.502075,785.911682 
	C598.671997,787.166687 599.744141,790.572754 598.929260,794.243652 
	C598.132996,797.830811 594.696289,796.636780 592.210999,796.740845 
	C590.060547,796.830933 587.770996,796.032654 585.757080,796.517151 
	C578.149841,798.347290 574.283386,794.430481 570.844177,788.349792 
	C566.344116,780.393433 561.082703,772.868347 556.168518,765.145203 
	C555.002258,763.312195 553.878052,761.448547 551.963806,760.284058 
	C548.333252,758.075378 545.809631,759.285522 545.720398,763.534851 
	C545.584290,770.013672 545.800720,776.499207 545.757080,782.981140 
	C545.741699,785.263550 546.996765,786.140808 548.894653,786.849121 
	C552.480408,788.187500 552.635864,791.300293 552.126953,794.353455 
	C551.626709,797.354492 548.890442,796.790466 546.876953,796.827026 
	C539.887146,796.954041 532.893372,796.949158 525.902588,796.865356 
	C524.014709,796.842834 521.577148,797.258972 520.952393,794.629333 
	C520.309143,791.921997 520.401733,788.880066 523.192688,787.581726 
	C526.426086,786.077454 526.735107,783.787842 526.771362,780.760071 
	C526.974976,763.786621 527.277405,746.813721 527.671753,729.843628 
	C527.744141,726.728760 527.225647,724.454773 523.981873,723.111816 
	C520.892151,721.832520 520.320435,718.919861 520.901367,715.933655 
	C521.512939,712.789734 524.255554,713.694824 526.206238,713.745728 
	C540.828674,714.127319 555.517395,712.451111 570.069763,714.737976 
	C581.434998,716.524048 588.073120,722.856934 589.602478,733.073486 
	C590.644287,740.033813 587.932251,745.737671 582.623169,750.685913 
M561.392334,724.781067 
	C560.081604,724.614929 558.774536,724.345581 557.459595,724.298889 
	C545.437744,723.872437 545.437317,723.883728 545.433716,735.896118 
	C545.429871,748.717224 547.280334,750.190247 560.077576,747.553406 
	C565.922241,746.349121 569.308472,742.947998 569.810425,737.777527 
	C570.473511,730.946167 568.527893,727.700134 561.392334,724.781067 
z"/>
<path fill="#000000" opacity="1.000000" stroke="none" 
	d="
M264.570007,725.457764 
	C272.948029,737.097046 281.114532,748.446228 289.758026,760.458313 
	C291.067078,749.401123 290.662018,739.034119 290.425385,728.679993 
	C290.377350,726.577271 289.326233,724.918396 287.200928,724.039001 
	C284.793091,723.042725 283.827087,721.112305 283.662292,718.517456 
	C283.452423,715.213074 284.478546,713.554504 288.101440,713.666138 
	C293.759888,713.840515 299.429443,713.626709 305.091400,713.732117 
	C307.068573,713.768860 309.802368,712.860413 310.236725,716.125793 
	C310.588867,718.773254 310.991028,721.870544 307.947845,723.145691 
	C303.698547,724.926453 303.263092,728.182251 303.277985,732.082153 
	C303.351868,751.406433 303.358551,770.731262 303.265076,790.055359 
	C303.253479,792.448303 304.576599,795.857666 300.593994,796.558777 
	C296.950500,797.200134 293.409424,797.402344 290.779510,793.657288 
	C280.729065,779.345398 270.531616,765.136719 260.367981,750.904480 
	C257.096069,746.322754 253.759186,741.787415 250.432053,737.203247 
	C248.707016,738.336121 249.331192,739.799927 249.325439,740.992737 
	C249.266754,753.153503 249.317902,765.314941 249.261948,777.475769 
	C249.244125,781.349365 249.760223,784.629822 253.977463,786.426819 
	C257.006927,787.717590 257.352295,790.762512 257.015717,793.728577 
	C256.621399,797.203552 253.660019,796.552979 251.566040,796.646606 
	C245.746155,796.906860 239.910934,796.887146 234.082428,796.856140 
	C232.188416,796.846069 229.632050,797.435242 229.012726,794.872681 
	C228.354752,792.150208 227.804611,788.624084 230.784683,787.172485 
	C236.120697,784.573181 236.005371,780.252563 235.964066,775.449158 
	C235.833725,760.290527 235.891403,745.129944 235.952667,729.970398 
	C235.964706,726.990173 235.727127,724.577820 232.418900,723.105347 
	C229.354584,721.741516 229.158035,718.569641 229.891846,715.705139 
	C230.656052,712.721985 233.422043,713.813721 235.393982,713.750610 
	C240.220261,713.596069 245.077896,713.987244 249.879059,713.606201 
	C254.407059,713.246948 257.519379,714.682617 259.740479,718.648071 
	C261.034668,720.958557 262.803314,723.003296 264.570007,725.457764 
z"/>
<path fill="#000000" opacity="1.000000" stroke="none" 
	d="
M548.066406,594.679688 
	C546.350403,592.097839 546.461304,589.696594 547.274780,586.773743 
	C568.422729,585.888245 589.732727,587.878906 611.141357,584.459839 
	C613.108215,587.486511 611.893127,591.062866 612.107178,594.418213 
	C612.318909,597.736511 612.260193,601.085266 612.095947,604.409607 
	C611.989807,606.557678 612.997070,609.612793 609.637573,610.090515 
	C606.431946,610.546326 602.065796,611.485657 600.823242,607.542908 
	C597.548645,597.152222 589.858643,596.712036 581.008667,597.129272 
	C571.210754,597.591187 572.276855,596.469971 572.200012,606.162781 
	C572.166931,610.327698 572.263855,614.494141 572.192932,618.658020 
	C572.150452,621.154358 573.062805,622.357666 575.719971,622.185181 
	C579.777649,621.921875 583.939392,622.756226 586.099670,617.494995 
	C587.525085,614.023376 591.404907,614.360901 594.520935,615.048157 
	C597.657715,615.740051 596.877625,618.680359 596.928101,620.872742 
	C597.043152,625.868286 597.068420,630.872009 596.904602,635.865051 
	C596.829163,638.165405 597.845642,641.363586 594.314270,642.022400 
	C590.769592,642.683777 587.224548,642.488037 585.283325,638.572388 
	C584.473755,636.939575 583.822693,635.267273 582.017822,634.323303 
	C576.105286,631.231079 572.224792,633.475769 572.207825,640.095947 
	C572.192932,645.927307 572.396973,651.767395 572.135620,657.587036 
	C571.954956,661.608337 573.572693,662.880310 577.397644,662.692810 
	C582.878784,662.424133 588.359253,662.606995 593.849792,661.928772 
	C599.121887,661.277466 602.479980,659.002625 603.796753,653.725891 
	C604.936096,649.160095 607.324829,645.837036 612.704346,645.940002 
	C615.518982,645.993896 617.111694,647.084473 617.095581,650.078918 
	C617.061462,656.409790 617.019714,662.741516 617.083984,669.071777 
	C617.116943,672.315186 615.559265,673.416199 612.458069,673.405823 
	C592.131897,673.338440 571.805298,673.379211 551.479004,673.332703 
	C549.752502,673.328735 547.462097,673.851013 546.945740,671.360352 
	C546.394714,668.702026 546.174316,665.537781 549.076721,664.288330 
	C552.644897,662.752258 552.769043,660.195496 552.807068,657.044434 
	C553.020630,639.392883 553.210815,621.738342 553.751282,604.095276 
	C553.891113,599.532471 552.859436,596.408813 548.066406,594.679688 
z"/>
<path fill="#000000" opacity="1.000000" stroke="none" 
	d="
M496.017578,784.301758 
	C498.837585,782.971252 499.921600,780.794556 500.747864,778.353027 
	C501.329742,776.633728 501.917053,774.841248 502.907471,773.350891 
	C504.962250,770.259155 508.318726,770.129822 511.452942,770.693176 
	C514.677612,771.272827 513.820312,774.298584 513.881165,776.461670 
	C514.016907,781.286438 513.756775,786.123718 513.935181,790.945557 
	C514.092102,795.188171 512.372803,796.944946 508.080536,796.912720 
	C491.096161,796.784973 474.110504,796.833313 457.125305,796.816772 
	C455.462219,796.815186 453.797455,796.863770 452.136536,796.804077 
	C450.211029,796.734863 447.809692,797.335693 447.038116,794.826843 
	C446.259766,792.295776 446.586334,789.474365 449.061615,788.165527 
	C452.537262,786.327698 452.728699,783.568054 452.727692,780.236206 
	C452.722626,763.417664 452.835968,746.598816 452.991638,729.780884 
	C453.019348,726.788940 452.847992,724.337036 449.497437,722.899536 
	C446.624023,721.666626 446.382629,718.722717 446.902283,715.976135 
	C447.494110,712.847534 450.194031,713.755615 452.181976,713.700256 
	C456.508087,713.579834 460.846313,713.829407 465.168793,713.656799 
	C479.549316,713.082642 494.038025,715.370850 508.992401,711.449219 
	C508.992401,719.451233 509.026672,726.873840 508.964783,734.295532 
	C508.951630,735.866333 507.735657,736.660339 506.321259,736.837769 
	C502.869598,737.270874 499.690582,736.978577 497.605835,733.541687 
	C495.761749,730.501404 495.281860,726.255249 491.171997,725.091614 
	C485.468140,723.476562 479.595825,724.249695 473.798676,724.490234 
	C471.342163,724.592102 471.328644,726.806030 471.316498,728.673523 
	C471.287201,733.169495 471.195435,737.668884 471.337006,742.160400 
	C471.399017,744.128418 470.320953,747.094360 473.426453,747.500427 
	C476.569458,747.911438 480.157349,748.890808 482.642151,745.592163 
	C483.137665,744.934387 483.389252,744.096497 483.862610,743.417847 
	C486.042603,740.292419 489.314453,740.272522 492.417145,741.028259 
	C495.305634,741.731873 494.296661,744.561401 494.353668,746.559265 
	C494.486542,751.218140 494.516022,755.888489 494.332458,760.544128 
	C494.243011,762.812805 495.643005,766.036194 492.138489,766.880737 
	C488.534332,767.749268 484.868927,767.215515 483.221741,763.319885 
	C481.487762,759.218933 478.373566,758.808960 474.659882,759.057312 
	C472.411255,759.207703 471.344513,760.279968 471.350098,762.523010 
	C471.366669,769.183594 471.361115,775.844116 471.360046,782.504700 
	C471.359741,784.486023 472.188477,785.715088 474.316040,785.648438 
	C481.440765,785.425232 488.643707,786.587036 496.017578,784.301758 
z"/>
<path fill="#000000" opacity="1.000000" stroke="none" 
	d="
M331.310608,651.176697 
	C323.391174,651.128601 315.898743,651.059570 308.407227,651.111755 
	C304.347137,651.140076 299.506958,656.892639 299.901672,660.916748 
	C300.070801,662.641296 301.489899,662.924011 302.586212,663.539001 
	C305.724731,665.299927 306.431488,668.195740 305.661346,671.257935 
	C304.861755,674.437378 301.853149,673.264648 299.715942,673.318054 
	C294.058716,673.459473 288.394409,673.431641 282.735474,673.330444 
	C280.714691,673.294373 277.993286,674.142456 277.280945,671.211060 
	C276.575836,668.309509 276.998474,664.971741 279.944672,663.818665 
	C285.990479,661.452454 287.979706,656.281616 290.224060,651.068176 
	C296.738220,635.936340 303.237152,620.797058 309.905334,605.732910 
	C311.342468,602.486267 311.937561,599.637695 310.147644,596.296936 
	C308.239410,592.735352 309.555359,589.773499 313.059265,587.981384 
	C325.645050,581.544373 322.839539,579.547913 328.777893,592.783630 
	C338.450928,614.343262 348.112885,635.907898 357.733582,657.490967 
	C358.853638,660.003662 360.143372,662.252991 362.845001,663.307251 
	C366.688538,664.807190 366.832306,668.036804 366.123627,671.222046 
	C365.390625,674.516602 362.349335,673.278931 360.254089,673.317261 
	C352.598083,673.457336 344.937531,673.398376 337.279327,673.336487 
	C335.374664,673.321106 332.962280,673.887146 332.287292,671.229309 
	C331.639771,668.679688 332.236542,666.317993 334.193909,664.352295 
	C335.548828,662.991577 339.312775,663.197632 337.965912,660.145386 
	C336.513977,656.854980 336.337189,652.394165 331.310608,651.176697 
M313.451874,627.881409 
	C312.396973,631.296326 309.972229,634.258484 309.746429,638.477844 
	C315.927704,639.047913 321.767395,638.899902 328.361328,638.577515 
	C325.413269,631.044495 322.748077,624.238708 319.020966,617.408569 
	C316.300659,620.717163 315.332214,624.115356 313.451874,627.881409 
z"/>
<path fill="#000000" opacity="1.000000" stroke="none" 
	d="
M378.017853,657.043091 
	C378.017090,655.386658 377.891479,654.203613 378.042847,653.057129 
	C378.342133,650.790466 376.889740,647.492737 380.520996,646.905334 
	C384.118439,646.323486 387.982697,646.025757 390.300201,649.972961 
	C391.899017,652.696167 393.168640,655.661743 395.068176,658.150513 
	C402.053345,667.302551 416.394623,666.714233 422.431030,657.169189 
	C425.924683,651.644897 424.786316,646.095032 419.211090,641.926697 
	C415.548859,639.188721 411.212585,637.866516 406.961304,636.412720 
	C400.956512,634.359253 395.023285,632.159973 389.869385,628.333191 
	C375.028900,617.313965 376.927795,596.216614 393.570831,588.157166 
	C401.884766,584.131165 410.526367,583.333191 419.204315,587.027832 
	C421.466125,587.990845 423.353394,588.135559 425.798584,587.466492 
	C432.219147,585.709778 434.156219,587.437927 434.180145,594.189514 
	C434.193726,598.022217 434.312256,601.861694 434.123566,605.685303 
	C434.010559,607.975464 435.317017,611.264099 431.891602,612.027649 
	C428.502350,612.783142 424.835510,612.925354 422.171387,609.802185 
	C420.412811,607.740540 419.516968,605.213684 418.511566,602.740112 
	C415.169983,594.518555 403.713745,592.838440 397.949432,599.697449 
	C394.862946,603.370056 395.559509,608.456726 399.719177,611.474426 
	C402.983093,613.842285 406.753876,615.243225 410.521637,616.599487 
	C416.012848,618.576172 421.459808,620.684387 426.514587,623.618896 
	C442.680237,633.003906 445.347595,654.083862 431.643005,666.869324 
	C423.248108,674.701111 413.147980,677.899048 401.632507,674.747131 
	C396.732849,673.405945 392.209747,672.154480 386.726959,673.912231 
	C379.651276,676.180481 378.089508,674.241577 378.048767,666.531860 
	C378.032898,663.532288 378.028046,660.532654 378.017853,657.043091 
z"/>
<path fill="#000000" opacity="1.000000" stroke="none" 
	d="
M211.269562,784.012451 
	C206.596268,791.562805 199.919327,795.592346 191.770721,797.328308 
	C183.674286,799.053284 175.544403,798.979736 167.565399,796.754639 
	C154.403152,793.084229 147.149857,783.045044 147.003662,768.342102 
	C146.877792,755.686157 146.909866,743.027710 146.997375,730.371216 
	C147.020477,727.031311 146.800095,724.269958 143.160721,722.593262 
	C140.607498,721.416992 140.279343,718.626282 140.807693,716.024170 
	C141.441284,712.903687 144.104675,713.765137 146.095474,713.737610 
	C153.255386,713.638367 160.417908,713.654419 167.578491,713.723999 
	C169.450272,713.742126 171.857086,713.064270 172.484756,715.869385 
	C173.074219,718.503723 172.627716,721.333008 170.131149,722.421936 
	C166.176849,724.146606 166.139053,727.119629 166.161682,730.579224 
	C166.245575,743.402344 166.739410,756.255005 166.064438,769.042969 
	C165.172104,785.949219 178.364761,789.186462 190.191605,786.004883 
	C198.126099,783.870483 201.637054,778.929932 201.749420,770.552185 
	C201.932556,756.898560 201.829651,743.241211 201.861389,729.585388 
	C201.867462,726.970093 201.667938,724.766602 198.417633,723.855835 
	C194.506577,722.759949 194.303787,719.338928 194.865738,716.086975 
	C195.457367,712.663208 198.461884,713.801758 200.570816,713.740173 
	C205.729141,713.589600 210.896851,713.612366 216.056686,713.736084 
	C218.044922,713.783813 220.857834,712.722961 221.516403,715.724731 
	C222.133545,718.537598 221.956482,721.899353 219.007507,723.215515 
	C214.409088,725.267883 214.651718,728.937866 214.698746,732.793030 
	C214.863129,746.274048 215.302322,759.754639 214.463074,773.233398 
	C214.229874,776.978394 213.197601,780.412659 211.269562,784.012451 
z"/>
<path fill="#000000" opacity="1.000000" stroke="none" 
	d="
M627.696167,666.907104 
	C627.697998,661.919312 627.575317,657.415649 627.757446,652.924377 
	C627.843384,650.805786 626.554260,647.680298 629.779053,646.997864 
	C633.156433,646.283142 636.935486,645.900024 639.349915,649.375244 
	C640.861450,651.550842 641.921936,654.033691 643.315491,656.298279 
	C648.905945,665.383423 660.005981,667.416992 668.369446,660.932739 
	C676.018677,655.002441 675.458496,645.607727 667.084229,640.780640 
	C661.271912,637.430481 654.589661,636.205200 648.532349,633.431580 
	C641.461487,630.193726 634.805542,626.453735 631.577271,618.792847 
	C624.813843,602.742371 635.484070,586.738159 654.191040,584.890930 
	C657.688354,584.545532 661.232544,584.530029 664.591064,585.681335 
	C668.795837,587.122803 672.766907,588.511047 677.479187,587.221863 
	C681.308350,586.174500 683.745911,588.019470 683.405457,592.654602 
	C683.089050,596.963440 683.483643,601.320984 683.269348,605.642395 
	C683.157410,607.899658 684.594849,611.195740 681.185791,612.015991 
	C677.781799,612.834961 674.145203,612.803467 671.516602,609.663086 
	C669.774902,607.582397 668.888062,605.045776 667.887756,602.577515 
	C664.601196,594.467285 652.716125,592.848145 647.276794,599.773621 
	C644.084717,603.837891 645.193054,608.830261 650.154785,612.150879 
	C654.635437,615.149536 659.926941,616.352722 664.784180,618.524658 
	C668.277466,620.086609 671.925842,621.364075 675.256714,623.215149 
	C684.707275,628.467224 690.571960,636.365662 689.923645,647.449707 
	C689.225342,659.387207 682.871765,668.019470 671.957520,673.065552 
	C664.695129,676.423279 657.203247,676.780884 649.546143,674.400024 
	C645.468506,673.132202 641.691406,672.149658 637.069458,673.874268 
	C630.321045,676.392334 627.798340,674.149536 627.696167,666.907104 
z"/>
<path fill="#000000" opacity="1.000000" stroke="none" 
	d="
M611.429565,723.635620 
	C618.592346,714.142822 630.619080,709.891296 641.869995,713.223083 
	C646.069763,714.466797 650.044617,715.521179 654.439758,714.786560 
	C658.050842,714.183044 659.568542,715.920227 659.380493,719.617065 
	C659.169312,723.768372 659.457581,727.944397 659.270203,732.098022 
	C659.174316,734.221863 660.454224,737.339905 657.324402,738.069946 
	C653.947937,738.857422 650.137878,739.118347 647.707153,735.781677 
	C646.264099,733.800842 645.222290,731.451965 644.371338,729.132385 
	C642.913879,725.159668 640.071655,723.415955 636.039368,723.169861 
	C631.507080,722.893372 627.241699,723.565125 624.565857,727.673950 
	C622.111206,731.443054 623.552856,734.737122 626.750977,737.297058 
	C629.771179,739.714478 633.394470,741.063416 636.997314,742.375488 
	C642.318237,744.313110 647.605957,746.333984 652.535278,749.153687 
	C662.647583,754.938232 667.009766,763.809387 665.133484,775.148071 
	C663.246094,786.553589 655.757568,793.517700 645.115906,797.322021 
	C638.735840,799.602966 632.381653,799.113586 626.028625,797.122314 
	C622.588196,796.043945 619.473755,795.444397 615.584473,796.972900 
	C609.138672,799.506104 606.627563,797.174622 606.608948,790.202820 
	C606.597412,785.874390 606.408569,781.535950 606.651123,777.221802 
	C606.774048,775.034668 605.036682,771.725342 608.716248,770.973694 
	C612.217285,770.258423 615.820984,770.546143 618.039673,774.068115 
	C619.366455,776.174194 620.299133,778.534668 621.679260,780.600098 
	C627.261475,788.954773 638.866699,790.277344 645.980469,783.454895 
	C651.761597,777.910522 651.173645,770.517700 644.511902,766.100464 
	C641.159851,763.877930 637.375793,762.555969 633.570496,761.315491 
	C628.819458,759.766602 624.129272,758.079468 619.851624,755.412354 
	C608.142029,748.111450 604.922913,736.411072 611.429565,723.635620 
z"/>
<path fill="#000000" opacity="1.000000" stroke="none" 
	d="
M715.458618,711.697754 
	C719.449951,713.255371 723.195923,713.714355 727.085083,713.694641 
	C741.083557,713.623718 755.084412,713.549072 769.080750,713.740967 
	C775.234619,713.825317 781.258728,713.306885 787.919617,711.016541 
	C787.919617,719.480225 788.188416,727.081970 787.795471,734.649353 
	C787.623657,737.957581 780.988708,738.446350 777.768616,735.515747 
	C776.117126,734.012695 775.207092,731.997803 774.428833,729.998291 
	C772.515808,725.083740 768.682922,724.056458 763.956604,724.225891 
	C761.211792,724.324219 760.027893,725.450928 760.032654,728.153259 
	C760.064697,746.317871 760.066467,764.482422 760.065308,782.647034 
	C760.065186,784.994934 761.153992,786.188354 763.465515,786.831665 
	C766.810486,787.762451 767.414612,790.541870 767.195618,793.598633 
	C766.947449,797.062988 764.141663,796.760010 761.963318,796.797607 
	C753.976685,796.935608 745.986084,796.871460 737.997192,796.837463 
	C736.268738,796.830139 734.523132,796.508057 734.158264,794.418396 
	C733.673157,791.640625 733.899414,788.427490 736.675964,787.453308 
	C741.156677,785.881226 741.006165,782.755798 740.988159,779.134216 
	C740.908569,763.135925 741.021973,747.136414 740.877991,731.138977 
	C740.855896,728.685059 742.471497,725.130920 738.049988,724.323181 
	C733.361755,723.466614 728.298279,725.383240 726.785706,728.752136 
	C725.904968,730.713806 725.536499,732.887817 724.143494,734.642334 
	C721.678528,737.746765 718.287659,737.758789 715.010864,736.993225 
	C711.839722,736.252380 712.890015,733.234009 712.831055,731.081604 
	C712.684937,725.752563 712.733215,720.416748 712.792419,715.084595 
	C712.809631,713.534424 712.355164,711.474976 715.458618,711.697754 
z"/>
<path fill="#000000" opacity="1.000000" stroke="none" 
	d="
M361.185852,723.753784 
	C358.419891,722.675415 357.122498,720.939697 356.901001,718.338928 
	C356.643738,715.318420 357.568970,713.610291 361.006348,713.665100 
	C368.336060,713.781982 375.669708,713.632446 383.000610,713.704956 
	C384.864960,713.723389 387.354401,712.956238 388.084106,715.612305 
	C388.712250,717.898560 388.814056,720.655701 386.591400,722.028259 
	C382.665222,724.452698 383.698273,727.157959 385.084320,730.463196 
	C390.285797,742.867432 395.301392,755.349609 400.663574,768.480774 
	C403.007263,765.838379 403.601196,763.246948 404.554871,760.882080 
	C408.789551,750.380981 412.950806,739.850281 417.174194,729.344543 
	C418.217377,726.749573 418.987122,724.519836 415.872650,722.490051 
	C413.574402,720.992310 413.321564,718.142517 414.063629,715.662231 
	C414.912445,712.825073 417.619843,713.749451 419.635010,713.701782 
	C424.797699,713.579590 429.966064,713.598999 435.130188,713.682678 
	C437.005280,713.712952 439.450775,713.037476 440.062622,715.805542 
	C440.624420,718.346924 440.579102,721.327454 437.977875,722.456421 
	C432.868866,724.673828 431.517975,729.294617 429.674072,733.700623 
	C421.638428,752.901489 413.581604,772.093750 405.634125,791.331177 
	C404.151947,794.918762 402.759583,797.515015 397.929565,797.478577 
	C392.905060,797.440613 391.976440,794.311829 390.587830,790.881531 
	C382.277344,770.351746 373.924713,749.838989 365.555908,729.332886 
	C364.688019,727.206299 364.072754,724.823242 361.185852,723.753784 
z"/>
<path fill="#000000" opacity="1.000000" stroke="none" 
	d="
M839.927490,796.893677 
	C834.607971,796.901855 829.776978,796.985962 824.949890,796.885132 
	C822.946350,796.843323 820.160645,797.708374 819.703674,794.586670 
	C819.326721,792.011780 818.876709,788.794189 821.933716,787.540894 
	C825.661499,786.012634 825.643555,783.278870 826.026855,779.959473 
	C827.420288,767.893250 824.164490,757.500488 816.614075,748.023865 
	C812.169617,742.445679 808.614746,736.159058 804.654846,730.194397 
	C802.638489,727.157104 800.814636,724.142883 796.876526,722.876099 
	C793.923950,721.926270 793.568176,718.896851 794.057312,716.109436 
	C794.606506,712.979797 797.257568,713.742065 799.277100,713.720154 
	C806.770264,713.638855 814.265991,713.605957 821.757935,713.727844 
	C823.747192,713.760254 826.700989,712.560364 827.431030,715.313293 
	C828.150208,718.025085 827.508850,720.972656 824.782471,722.824463 
	C824.241760,723.191711 823.697693,723.554138 822.518799,724.346497 
	C827.654602,732.309265 832.734436,740.185181 838.484924,749.100891 
	C843.821960,740.506592 848.659546,732.716614 853.299927,725.244080 
	C852.561096,723.050903 850.792053,722.859802 849.803101,721.751831 
	C848.181641,719.935303 847.934265,717.896362 848.541321,715.695557 
	C849.218933,713.238892 851.344910,713.732239 853.090332,713.714355 
	C859.084900,713.652954 865.080872,713.641418 871.075378,713.700745 
	C872.970337,713.719482 875.364990,713.111023 875.988159,715.864197 
	C876.527466,718.246887 876.418274,721.107544 874.096191,722.123230 
	C866.720825,725.349243 864.010620,732.437683 859.879333,738.343811 
	C856.348938,743.390869 853.560974,749.058960 849.503906,753.614563 
	C841.229797,762.905334 845.078125,773.830383 844.410339,784.156128 
	C844.327026,785.444397 845.343201,786.251404 846.529297,786.644531 
	C850.450256,787.944092 850.853210,791.103638 850.145935,794.348572 
	C849.400574,797.768127 846.224426,796.612488 843.912109,796.883240 
	C842.762573,797.017822 841.583374,796.899109 839.927490,796.893677 
z"/>
<path fill="#000000" opacity="1.000000" stroke="none" 
	d="
M542.504883,321.775635 
	C540.476807,336.480377 529.655151,346.070801 514.812988,346.692841 
	C501.264099,347.260681 489.107727,337.968903 486.315277,324.910461 
	C483.322845,310.916840 494.282928,297.035156 510.182587,294.919281 
	C527.919373,292.558899 543.111084,305.485718 542.504883,321.775635 
z"/>
<path fill="#000000" opacity="1.000000" stroke="none" 
	d="
M733.738464,594.500122 
	C728.718140,596.676392 727.935303,600.297485 728.015625,605.089050 
	C728.303162,622.245361 728.180908,639.409485 728.109497,656.570190 
	C728.095581,659.916321 728.184509,662.624146 732.172668,664.032532 
	C734.999451,665.030823 735.340454,668.175598 734.889404,670.917664 
	C734.381592,674.004883 731.714905,673.327576 729.672058,673.346130 
	C722.175110,673.414124 714.676575,673.422302 707.180054,673.334656 
	C705.165405,673.311096 702.532532,674.045227 701.962097,670.915161 
	C701.488708,668.317566 701.694885,665.392944 704.336731,664.384766 
	C708.828857,662.670532 708.839355,659.358765 708.821228,655.528809 
	C708.738647,638.034912 708.757690,620.540100 708.836182,603.046143 
	C708.850403,599.872131 708.694458,597.293884 705.029724,595.900696 
	C702.254700,594.845642 701.544006,592.000366 701.900574,589.147278 
	C702.345642,585.585815 705.391113,586.543640 707.431396,586.456787 
	C714.417297,586.159607 721.416565,586.129822 728.411194,586.099487 
	C735.378967,586.069336 736.254456,587.395996 733.738464,594.500122 
z"/>
<path fill="#000000" opacity="1.000000" stroke="none" 
	d="
M324.781097,762.000000 
	C324.783325,750.837341 324.738647,740.174377 324.818268,729.512329 
	C324.839539,726.666138 324.548492,724.432861 321.389130,723.138916 
	C318.279938,721.865601 317.883118,718.846680 318.504822,715.897888 
	C319.160095,712.790100 321.882172,713.762573 323.860291,713.731140 
	C330.689301,713.622314 337.521942,713.630920 344.351349,713.726685 
	C346.356689,713.754761 349.092987,712.826721 349.784119,715.825134 
	C350.457458,718.746338 350.006104,721.873718 346.890137,723.048950 
	C343.417328,724.358826 343.235535,726.736206 343.248688,729.748047 
	C343.322876,746.741333 343.317200,763.735229 343.266876,780.728699 
	C343.258026,783.716736 343.347931,786.094055 347.032410,787.243164 
	C349.950470,788.153259 350.281250,791.321411 349.929749,794.045227 
	C349.519775,797.222534 346.829529,796.418701 344.781647,796.461182 
	C337.796936,796.606201 330.811188,796.732422 323.825348,796.768311 
	C321.751251,796.778931 319.155914,797.336426 318.391693,794.507263 
	C317.653412,791.774170 317.942535,788.747009 320.788483,787.567505 
	C324.522858,786.019653 324.912476,783.399780 324.816742,779.992126 
	C324.653107,774.165710 324.777435,768.331116 324.781097,762.000000 
z"/>
<path fill="#000000" opacity="1.000000" stroke="none" 
	d="
M691.437561,796.477478 
	C685.380371,797.082031 679.858643,797.078674 674.328918,795.243591 
	C675.415649,792.520569 676.925598,793.751709 678.094604,793.628296 
	C679.606018,793.468872 681.011780,792.770996 680.567200,791.206665 
	C678.691040,784.604187 681.572632,778.158020 680.897400,771.535767 
	C680.225708,764.949097 680.754578,758.240173 680.754517,751.584900 
	C680.754456,744.763184 680.670837,737.940186 680.782532,731.120361 
	C680.841431,727.525635 680.927612,724.391968 676.651672,722.642212 
	C673.947449,721.535645 673.497925,718.401367 674.260498,715.658264 
	C674.987732,713.042542 677.454285,713.744141 679.341309,713.723206 
	C686.328613,713.645691 693.317932,713.610962 700.304688,713.701050 
	C702.286560,713.726562 705.047119,712.765076 705.630188,715.876038 
	C706.167847,718.744629 706.005188,721.898254 702.804016,723.124939 
	C699.630554,724.341003 699.222351,726.451050 699.235046,729.355103 
	C699.310669,746.658508 699.282654,763.962524 699.251343,781.266296 
	C699.246582,783.877319 699.319458,786.024963 702.575562,787.031616 
	C705.892151,788.056824 706.091248,791.274963 705.648499,794.139526 
	C705.159363,797.304382 702.364624,796.269592 700.382202,796.378296 
	C697.561462,796.532898 694.727356,796.442200 691.437561,796.477478 
z"/>
</svg>